<svg width="147" height="38" viewBox="0 0 147 38" fill="none" xmlns="http://www.w3.org/2000/svg">
<path d="M28.5003 36.0583C29.0366 36.0583 29.4714 36.4932 29.4714 37.0295C29.4594 37.5433 29.0293 38 28.5003 38.0006H21.3226C20.7863 38.0006 20.3515 37.5657 20.3515 37.0295C20.3755 36.4779 20.7077 36.0619 21.3226 36.0583H28.5003ZM10.5977 34.0317C11.134 34.0317 11.5688 34.4665 11.5688 35.0028C11.5583 35.5742 11.1458 35.9703 10.5977 35.9739H3.41996C2.8837 35.9739 2.44885 35.539 2.44885 35.0028C2.46078 34.4891 2.88441 34.0386 3.41996 34.0317H10.5977ZM2.65993 13.765C3.42922 13.765 4.05322 14.3889 4.05322 15.1583C4.05453 15.9665 3.42976 16.5469 2.65993 16.5516H1.39329C0.624006 16.5516 0 15.9275 0 15.1583C0.00112386 14.3651 0.675027 13.771 1.39329 13.765H2.65993ZM18.4516 0.000976562C19.0815 0.000976562 19.5916 0.510996 19.5916 1.14094C19.5731 1.80228 19.0866 2.27675 18.4516 2.2809H14.6516C14.0217 2.2809 13.5117 1.77088 13.5117 1.14094C13.5189 0.536674 14.1142 0.00490027 14.6516 0.000976562H18.4516Z" fill="#F8D46E"/>
<path d="M1.39942 8.19002C0.63012 8.19002 0.0061257 8.81406 0.0061257 9.58331C0.00163032 10.3652 0.681091 10.9609 1.39942 10.9766H9.67496C10.4442 10.9766 11.0683 11.6006 11.0683 12.3699C11.0577 13.1781 10.4448 13.7585 9.67496 13.7632H8.1549C7.38562 13.7632 6.76161 14.3872 6.76161 15.1566C6.77897 15.965 7.32497 16.5245 8.1549 16.5499H9.67484C10.4441 16.5499 11.0681 17.1739 11.0681 17.9432C11.0626 18.7252 10.5336 19.3207 9.67484 19.3366H3.67939C2.91009 19.3366 2.2861 19.9606 2.2861 20.7299C2.30343 21.5381 2.92297 22.1384 3.67939 22.1232H9.67496C10.4442 22.1232 11.0683 22.7472 11.0683 23.5166C11.0293 24.3052 10.3933 24.894 9.67496 24.9099H4.98241C4.2013 24.9099 3.53846 25.5491 3.55274 26.3302C3.56708 27.0869 4.18521 27.6966 4.94603 27.6966H17.144V8.17114L1.39942 8.19002Z" fill="#F8D46E"/>
<path d="M11.4233 17.7362C11.4233 21.4909 12.6995 24.9474 14.8412 27.6967H17.2142V8.17126L14.537 8.17951C12.5796 10.86 11.4233 14.1629 11.4233 17.7361V17.7362Z" fill="black" fill-opacity="0.1"/>
<path d="M27.5654 32.1595C35.5202 32.1595 41.9689 25.7109 41.9689 17.756C41.9689 9.8012 35.5202 3.35254 27.5654 3.35254C19.6105 3.35254 13.1619 9.8012 13.1619 17.756C13.1619 25.7109 19.6105 32.1595 27.5654 32.1595Z" fill="#F0F0F0"/>
<path d="M13.1619 17.756C13.1619 9.8012 19.6105 3.35254 27.5654 3.35254C35.5202 3.35254 41.9689 9.8012 41.9689 17.756H13.1619Z" fill="#FE4566"/>
<path d="M13.2041 16.6385C13.1758 17.0073 13.1614 17.38 13.1614 17.7561C13.1614 18.2167 13.183 18.6723 13.2253 19.1219H41.9044C41.9468 18.6723 41.9684 18.2167 41.9684 17.7561C41.9684 17.38 41.954 17.0073 41.9256 16.6385H13.2043H13.2041Z" fill="#606060"/>
<path d="M27.5655 22.5985C30.2399 22.5985 32.408 20.4305 32.408 17.756C32.408 15.0815 30.2399 12.9135 27.5655 12.9135C24.891 12.9135 22.7229 15.0815 22.7229 17.756C22.7229 20.4305 24.891 22.5985 27.5655 22.5985Z" fill="#606060"/>
<path d="M22.7227 17.756C22.7227 20.4304 24.8908 22.5985 27.5652 22.5985C29.1425 22.5985 30.5438 21.8443 31.428 20.6769C31.1809 20.7158 30.9274 20.736 30.6694 20.736C27.995 20.736 25.8269 18.5679 25.8269 15.8935C25.8269 14.7963 26.1917 13.7845 26.8067 12.9725C24.4925 13.3366 22.7227 15.3395 22.7227 17.756Z" fill="black" fill-opacity="0.1"/>
<path d="M27.5653 20.3636C29.0054 20.3636 30.1728 19.1962 30.1728 17.7561C30.1728 16.316 29.0054 15.1486 27.5653 15.1486C26.1252 15.1486 24.9578 16.316 24.9578 17.7561C24.9578 19.1962 26.1252 20.3636 27.5653 20.3636Z" fill="#F0F0F0"/>
<path d="M24.9578 17.756C24.9578 19.1961 26.1252 20.3635 27.5653 20.3635C28.4286 20.3635 29.1939 19.9439 29.6684 19.2976C29.4718 19.3451 29.2665 19.3702 29.0553 19.3702C27.6152 19.3702 26.4478 18.2027 26.4478 16.7626C26.4478 16.1859 26.635 15.6528 26.9521 15.2209C25.8079 15.4967 24.9578 16.5271 24.9578 17.756Z" fill="black" fill-opacity="0.1"/>
<path d="M13.1619 17.7561C13.1619 25.7109 19.6105 32.1595 27.5654 32.1595C30.2149 32.1595 32.6972 31.4442 34.8299 30.1961C33.8109 30.4247 32.751 30.5454 31.6629 30.5454C23.7081 30.5454 17.2594 24.0967 17.2594 16.1419C17.2594 10.8365 20.1278 6.2011 24.3983 3.70148C17.967 5.14443 13.1619 10.8889 13.1619 17.7561V17.7561Z" fill="black" fill-opacity="0.1"/>
<path d="M67.0373 27.5H63.4133V13.388H58.7573V10.364H71.6933V13.388H67.0373V27.5ZM81.139 13.148C79.747 13.148 78.683 13.668 77.947 14.708C77.211 15.748 76.843 17.172 76.843 18.98C76.843 20.804 77.179 22.22 77.851 23.228C78.539 24.22 79.635 24.716 81.139 24.716C81.827 24.716 82.523 24.636 83.227 24.476C83.931 24.316 84.691 24.092 85.507 23.804V26.852C84.755 27.156 84.011 27.38 83.275 27.524C82.539 27.668 81.715 27.74 80.803 27.74C79.027 27.74 77.571 27.38 76.435 26.66C75.299 25.924 74.459 24.9 73.915 23.588C73.371 22.26 73.099 20.716 73.099 18.956C73.099 17.228 73.411 15.7 74.035 14.372C74.659 13.044 75.563 12.004 76.747 11.252C77.947 10.5 79.411 10.124 81.139 10.124C81.987 10.124 82.835 10.236 83.683 10.46C84.547 10.668 85.371 10.956 86.155 11.324L84.979 14.276C84.339 13.972 83.691 13.708 83.035 13.484C82.395 13.26 81.763 13.148 81.139 13.148ZM95.1835 17.876H101.976V26.756C101.08 27.06 100.144 27.3 99.1675 27.476C98.1915 27.652 97.0955 27.74 95.8795 27.74C93.3195 27.74 91.3515 26.988 89.9755 25.484C88.5995 23.98 87.9115 21.788 87.9115 18.908C87.9115 17.116 88.2555 15.564 88.9435 14.252C89.6315 12.94 90.6395 11.924 91.9675 11.204C93.3115 10.484 94.9435 10.124 96.8635 10.124C97.7755 10.124 98.6715 10.22 99.5515 10.412C100.432 10.604 101.232 10.86 101.952 11.18L100.752 14.084C100.224 13.812 99.6235 13.588 98.9515 13.412C98.2795 13.236 97.5755 13.148 96.8395 13.148C95.7835 13.148 94.8635 13.388 94.0795 13.868C93.3115 14.348 92.7115 15.028 92.2795 15.908C91.8635 16.788 91.6555 17.812 91.6555 18.98C91.6555 20.1 91.8075 21.092 92.1115 21.956C92.4155 22.82 92.8955 23.5 93.5515 23.996C94.2075 24.476 95.0635 24.716 96.1195 24.716C96.6315 24.716 97.0635 24.692 97.4155 24.644C97.7675 24.596 98.1035 24.54 98.4235 24.476V20.9H95.1835V17.876ZM109.911 27.74C108.455 27.74 107.263 27.172 106.335 26.036C105.423 24.884 104.967 23.196 104.967 20.972C104.967 18.732 105.431 17.036 106.359 15.884C107.287 14.732 108.503 14.156 110.007 14.156C110.951 14.156 111.727 14.34 112.335 14.708C112.943 15.076 113.423 15.532 113.775 16.076H113.895C113.847 15.82 113.791 15.452 113.727 14.972C113.663 14.476 113.631 13.972 113.631 13.46V9.26H117.207V27.5H114.471L113.775 25.796H113.631C113.279 26.34 112.807 26.804 112.215 27.188C111.623 27.556 110.855 27.74 109.911 27.74ZM111.159 24.884C112.135 24.884 112.823 24.596 113.223 24.02C113.623 23.428 113.839 22.548 113.871 21.38V20.996C113.871 19.732 113.671 18.764 113.271 18.092C112.887 17.404 112.167 17.06 111.111 17.06C110.327 17.06 109.711 17.404 109.263 18.092C108.815 18.764 108.591 19.74 108.591 21.02C108.591 22.3 108.815 23.268 109.263 23.924C109.711 24.564 110.343 24.884 111.159 24.884ZM126.346 14.156C128.154 14.156 129.586 14.676 130.642 15.716C131.698 16.74 132.226 18.204 132.226 20.108V21.836H123.778C123.81 22.844 124.106 23.636 124.666 24.212C125.242 24.788 126.034 25.076 127.042 25.076C127.874 25.076 128.634 24.996 129.322 24.836C130.026 24.66 130.746 24.396 131.482 24.044V26.804C130.826 27.124 130.146 27.356 129.442 27.5C128.738 27.66 127.882 27.74 126.874 27.74C125.562 27.74 124.402 27.5 123.394 27.02C122.386 26.524 121.594 25.788 121.018 24.812C120.442 23.82 120.154 22.564 120.154 21.044C120.154 19.524 120.41 18.252 120.922 17.228C121.45 16.204 122.178 15.436 123.106 14.924C124.034 14.412 125.114 14.156 126.346 14.156ZM126.37 16.7C125.666 16.7 125.09 16.924 124.642 17.372C124.194 17.82 123.93 18.516 123.85 19.46H128.866C128.85 18.676 128.634 18.02 128.218 17.492C127.818 16.964 127.202 16.7 126.37 16.7ZM137.345 20.804L133.121 14.396H137.177L139.721 18.572L142.289 14.396H146.345L142.073 20.804L146.537 27.5H142.481L139.721 23.012L136.961 27.5H132.905L137.345 20.804Z" fill="url(#paint0_linear)"/>
<defs>
<linearGradient id="paint0_linear" x1="57.9688" y1="19" x2="146.969" y2="19" gradientUnits="userSpaceOnUse">
<stop stop-color="#FE4566"/>
<stop offset="1" stop-color="#F8D46E"/>
</linearGradient>
</defs>
</svg>
